<mxfile host="app.diagrams.net" modified="2023-09-04T22:16:05.508Z" agent="Mozilla/5.0 (Macintosh; Intel Mac OS X 10.15; rv:109.0) Gecko/20100101 Firefox/117.0" version="21.7.2" etag="J9CQg3Nz3aPCMMsk-Z3R" type="github">
  <diagram name="PÃ¡gina-1" id="5C7JL95w8Fru2DHB9aME">
    <mxGraphModel>
      <root>
        <mxCell id="0" />
        <mxCell id="1" parent="0" />
      </root>
    </mxGraphModel>
  </diagram>
</mxfile>
